<?xml version="1.0" standalone="yes"?>
<svg xmlns="http://www.w3.org/2000/svg" width="1920" height="1080">
<path style="fill:#c0c2b0; stroke:none;" d="M0 0L0 18L4 18L4 20L0 20C0 25.1841 -2.2352 37.186 1.6034 41.1219C4.52358 44.1162 10.1432 44.6864 14 45.6644C23.4121 48.0514 32.4585 48.9399 42 50.3002C60.966 53.0039 79.9093 52.782 99 54.0895C120.738 55.5784 142.16 58 164 58C164 107.326 162 156.665 162 206L162 256C162 263.03 163.545 272.147 161.682 278.941C159.549 286.724 147.552 281.235 145 289C153.288 290.539 159.912 288.78 168 287.245C177.257 285.488 186.867 284.175 196 282C193.255 280.22 191.48 278.965 190 276C186.677 276.098 184.104 276.891 181 278C181 238.04 180.036 197.947 181.015 158C181.505 137.99 183 118.069 183 98C188.737 98.0007 194.476 98.1409 200 99.9005C205.174 101.549 209.784 104.497 215 106C227.218 88.8005 255.232 99.5956 271 106.745C275.012 108.565 278.74 110.688 283 111.924C292.858 114.785 303.072 115.545 313 118C344.224 125.72 375.86 135.071 406.001 146.267C415.927 149.954 424.947 155.127 435.004 158.571C440.184 160.345 445.743 160.21 451 161.77C464.618 165.811 477.591 172.037 491 176.63C504.206 181.155 517.631 182.799 531 186.42C544.178 189.989 556.867 196.055 569 202.155C575.856 205.602 584.342 211.182 591.964 212.486C595.964 213.17 600.781 211.014 605 211C605.109 213.442 605.428 215.623 606 218C601.624 219.242 597.388 219.87 595 224C602.823 224.975 610.632 228.529 618.285 230.549C633.61 234.595 650.031 237.599 666 235.714C673.656 234.811 681.293 234.997 689 235C691.886 235.001 696.141 234.348 698.397 236.603C701.663 239.87 700 248.759 700 253C700 267.899 699.072 283.137 700.089 298C702.506 333.284 702.492 368.661 704.039 404C704.375 411.67 705.625 419.33 705.961 427C706.397 436.976 705.407 447.037 706.089 457C706.687 465.728 708 474.22 708 483C696.302 480.326 684.802 480.228 673 478.816C651.984 476.301 631.01 473.018 610 470.289C596.371 468.519 582.6 468.164 569 466.208C560.702 465.015 552.391 463.665 544 463.089C536.447 462.572 529.419 463.262 524.854 455.91C521.96 451.249 522.111 443.39 522 438C517.297 436.573 517.054 433.539 517 429L501 429L500 346L521 347L521 343C516.734 343 512.023 343.552 508.004 341.852C504.638 340.428 502.728 337.615 499.83 335.594C496.368 333.179 491.129 332.263 487 332L488 470C481.777 470.052 474.947 471.226 469 473C474.608 476.359 481.736 474.574 488 475.17C495.978 475.929 504.059 475.323 512 476.174C518.317 476.85 524.682 478.513 531 479.428C569.835 485.052 608.657 492.238 648 493.961C666.887 494.788 687.115 495.395 705.961 493.945C710.502 493.596 713.564 489.875 718 489.368C722.458 488.858 727.399 490.961 732 491C732 441.45 730.468 392.329 727.089 343C726.476 334.035 727.682 324.95 726.83 316C725.46 301.603 724 286.465 724 272C724 268.167 723.093 260.331 727.303 258.201C731.552 256.053 742.602 261.295 747 262.649C760.141 266.694 772.872 271.632 786 275.758C791.256 277.409 795.364 279.867 801 280L801 283C818.114 285.097 835.031 294.205 851.424 299.287C868.752 304.659 886.065 308.327 903 315C901.597 318.003 900.51 320.72 900 324C915.329 327.966 931.279 328 947 328C951.59 328 961.888 326.095 965.397 329.603C968.13 332.337 967 338.497 967 342C967 352.735 965.731 364.365 967.209 375C969.917 394.485 969.512 414.332 971.093 434C971.367 437.402 972.633 440.598 972.907 444C973.546 451.957 972.69 460.026 973.039 468C973.801 485.387 975 502.534 975 520C969.766 520.014 965.12 521.247 960 522C963.888 524.945 969.284 524 974 524C985.282 524 997.99 525.621 1009 523C1004.47 516.863 999.41 515.021 992 515C992.001 506.699 996.376 496.29 986 494L986 492C992.513 490.449 999.341 491 1006 491L1037 491C1032.68 483.664 1021.95 481.023 1014 481L1014 461L1057 461C1057 481.519 1056.53 501.96 1061 522C1051.57 521.999 1042.45 520 1033 520C1033 530.776 1034.49 541.279 1034.96 552C1035.53 564.95 1035 578.037 1035 591C1014.54 591 993.391 592.554 973 590.907C965.002 590.261 955.982 584.789 948.326 590.148C938.033 597.352 944.951 613.073 944.999 623C945.156 655.047 947 686.997 947 719C957.494 714.03 959.983 701.582 960 691C960.033 670.233 958 649.709 958 629L971 629L971 601L963 601C971.98 596.679 985.18 599 995 599L1064 599C1064 619.676 1064.99 640.401 1065 661C1065 673.509 1063.1 687.8 1066 700C1080.15 690.892 1074.64 673.726 1074.04 660C1073.4 645.391 1074 630.624 1074 616C1074 609.153 1073.98 600.566 1068.53 595.455C1062.05 589.392 1054.18 590 1046 590C1046 569.935 1044 550.034 1044 530C1050.01 530 1056.04 530.249 1062 529.424C1063.96 529.151 1066.77 529.276 1068.4 527.973C1072.41 524.764 1069.58 513.347 1069.17 509C1067.6 492.467 1068 475.617 1068 459C1061.6 456.999 1054.71 456.221 1048.43 453.982C1043.25 452.137 1037.9 448.518 1032.09 449.488C1028.88 450.023 1027.39 453.268 1024.82 454.911C1021.58 456.978 1017.7 456.969 1014 457C1013.91 446.308 1012 435.718 1012 425C1019.98 425.796 1027.1 430.195 1035 431.558C1050.06 434.156 1065.77 433 1081 433C1081 474.829 1085 516.209 1085 558C1081.69 558 1078.27 558.234 1075 557.625C1071.04 556.887 1066.23 554.653 1062.38 557.028C1059.93 558.535 1058.44 561.626 1057 564C1066.13 566.698 1077.5 565 1087 565C1087 618.095 1091 670.907 1091 724C1077.26 726.02 1063.37 729.352 1050 733L1050 664C1037.14 662.375 1024.83 663.894 1012 664L1012 672C1021.56 672 1030.54 671.197 1040 670L1041 729L1040 752C1043.15 751.466 1047.95 750.849 1050.26 748.412C1051.86 746.721 1051.8 744.227 1053.01 742.326C1054.39 740.176 1056.83 738.706 1059 737.468C1070.83 730.71 1087.37 737.323 1096.7 725.536C1099.9 721.488 1100.57 716.009 1100.91 711C1101.69 699.672 1099.24 688.229 1098.17 677C1097.03 665.099 1098.48 652.941 1097.96 641C1097.7 634.98 1096.3 629.02 1096.04 623C1095.23 604.408 1096 585.611 1096 567L1130 567C1130 597.073 1132 626.916 1132 657C1142.38 653.67 1140.27 637.362 1139.29 629C1137.61 614.816 1139.89 600.241 1138.91 586C1138.64 582.095 1135.51 573.905 1138.62 570.742C1140.24 569.094 1142.86 569.083 1145 569.015C1150.41 568.845 1156.63 568.279 1161.98 569.148C1166.82 569.935 1166.97 573.882 1167 578C1167.05 585.301 1166.59 592.715 1167.09 600C1168.16 615.651 1170.28 631.365 1170.96 647C1171.38 656.65 1170.78 666.344 1171.01 676C1171.25 685.71 1175.93 696.556 1170.25 705.656C1166.06 712.348 1150.98 712.997 1144 713C1141.21 713.001 1134.97 712.057 1134.47 716.089C1133.71 722.115 1144.94 719.245 1148 718.961C1158.36 717.999 1173.97 714.861 1178.12 703.911C1181.97 693.74 1177.02 680.513 1177 670C1176.95 636.865 1173 604.043 1173 571L1199 571C1199 605.08 1203 638.839 1203 673C1203 684.446 1209.99 703.219 1194 707C1194 679.272 1192 651.642 1192 624C1192 614.983 1194.07 598.405 1185 593C1185.26 624.988 1187.23 657.049 1188.01 689C1188.29 700.045 1194.63 714.356 1189.66 724.985C1185.96 732.895 1178.77 734.352 1171 736.377C1161.02 738.978 1150.96 741.226 1141 743.92C1136.91 745.027 1126.25 749.225 1123.74 743.837C1122.14 740.397 1123.18 735.689 1122.83 732C1121.98 723.094 1121.01 713.951 1121 705C1120.99 701.71 1120.26 697.233 1121.6 694.148C1123.35 690.143 1128.47 691.155 1132 690.911C1139.27 690.406 1150.15 689.449 1155.32 683.786C1160.8 677.782 1160 670.542 1160 663C1160 646.03 1158.2 629.039 1158 612C1157.91 605.057 1156.64 596.536 1150 593C1150.9 604.425 1152.13 615.493 1152 627C1151.89 636.025 1150.64 644.907 1151.04 654C1151.44 663.072 1153.99 671.829 1154 681C1142.75 681.001 1132.36 684.993 1121 685C1121 663.577 1120.55 642.33 1119.09 621C1118.34 610.125 1119.6 599.475 1109 593C1109.37 595.762 1110.55 598.279 1110.87 601.039C1112.64 616.107 1110.38 631.84 1111.04 647C1111.32 653.348 1112.68 659.652 1112.96 666C1114.22 694.673 1115 723.254 1115 752C1108.18 752.141 1101.64 754.122 1095 755.487C1071.52 760.31 1048.77 769.505 1025 773L1025 754L1033 754L1033 741L1024 741C1024 732.27 1023.23 723.677 1023.01 715C1022.95 712.171 1023.95 707.049 1021.4 705.028C1019.31 703.376 1015.47 704.001 1013 704L992 704C992.002 687.276 995.231 670.64 995.961 654C996.16 649.46 993.936 638.952 998.318 636.028C1001.48 633.918 1007.38 635 1011 635C1021.39 635 1031.62 634 1042 634L1042 627L997 627C997 621 997.041 614.999 996.999 609C996.984 606.791 997.361 603.583 995.397 602.028C992.139 599.447 983.969 601 980 601C980 639.057 981.895 677.04 982 715C992.389 713.471 1001.33 711 1012 711C1012 733.443 1014 755.625 1014 778C996.51 778.048 978.469 785.269 962 790.276C949.254 794.151 935.979 798.721 923 801.614C911.109 804.265 898.92 805.541 887 808C887 804.119 886.475 799.777 887.498 796C890.141 786.245 898.847 783.394 908 783L908 769L887 769C887 651.821 876 535.21 876 418L859 412C859 470.774 865 529.249 865 588C843.248 588 821.728 590.518 800 589.985C789.244 589.722 778.721 587.007 768 587C768 612.588 766.92 638.439 768.039 664C768.522 675.028 770.156 685.989 770.911 697C771.874 711.072 771.224 724.945 773 739C756.752 739 740.033 740.724 724 743.325C708.805 745.79 693.464 749.681 678 750C678 727.402 678.949 704.574 677.961 682C677.436 670.022 676.001 658.003 676 646C666.373 645.994 657.483 642.222 648 642C648 683.082 650 723.926 650 765C693.606 765 735.361 748 779 748C779.511 741.28 784.445 739.977 788.501 735.384C791.428 732.07 792.399 727.286 792.829 723C793.606 715.268 792.012 707.701 792 700C791.98 687.412 792.771 674.558 791.911 662C790.474 641.019 788 620.058 788 599C813.74 599 839.352 597 865 597C865 617.272 864.153 637.749 865.039 658C866.527 691.967 869 725.942 869 760C869 773.055 870 785.951 870 799C870 802.88 871.407 810.386 868.397 813.397C866.487 815.307 863.446 814.879 861 815.093C857.026 815.439 852.926 816.5 849 817.245C834.005 820.09 818.651 823.622 804 827.879C757.651 841.347 710.345 851.808 663.17 862.241C643.749 866.536 624.798 873.956 605.089 877.11C593.825 878.914 581.971 882.746 571 885.83C565.733 887.311 560.147 887.405 555 889.043C549.701 890.73 537.693 895.767 532.447 892.012C529.818 890.129 532.62 886.227 533.272 883.985C535.061 877.831 534 870.359 534 864C534 834.602 532 805.38 532 776L495 776C495 818.454 499 860.523 499 903C484.155 903.678 468.437 908.786 454 912.251C435.485 916.694 416.68 920.581 398 924.399C340.71 936.11 284.07 949.587 227 962.501C205.377 967.394 183.718 972.856 162 977.334C153.062 979.177 143.936 980.243 135 982.411C104.508 989.806 73.7704 996.556 43.0039 1003C28.8878 1005.96 14.4878 1010.85 0 1012L0 1080L1920 1080L1920 808L1920 730L1920 708C1920 704.722 1920.74 700.288 1919.4 697.214C1917.39 692.628 1908.22 690.358 1904 688.247C1889.13 680.814 1873.88 674.172 1859 666.753C1826.99 650.787 1794 636.744 1762 620.753C1750.13 614.821 1738.06 609.228 1726 603.691C1720.58 601.201 1714.98 597.097 1709 596.214C1705.03 595.628 1700.94 596.608 1697 597.05C1684.7 598.432 1672.94 601.902 1661 605L1661 598C1658.89 602.812 1658.57 605.325 1653 607C1654.19 605.814 1654.58 605.472 1656 605L1655 599C1654.22 600.769 1654.09 602.036 1654 604L1653 602C1650.51 606.578 1648.36 608.447 1643 609C1644.05 599.411 1642 589.623 1642 580C1638.51 588.317 1642 601.036 1642 610L1628 613C1629.94 609.916 1632.47 609.488 1636 609C1633.24 607.923 1630.89 608.468 1628 609C1628.9 606.876 1628.88 606.899 1631 606L1628 603C1626.67 606.163 1627 609.586 1627 613C1624.79 613.094 1623.11 613.356 1621 614L1621 598C1622.66 599.686 1623.25 600.746 1624 603C1625.42 600.958 1625.75 599.489 1626 597C1624.7 597.65 1625 597.147 1625 599C1624.29 595.942 1624.33 594.731 1627 593L1626 588C1624.17 590.908 1623.23 593.564 1623 597L1619 597L1620 615C1619.28 612.582 1619.05 610.529 1619 608C1618.02 610.331 1618.02 612.457 1618 615C1617.44 613.199 1617.18 611.878 1617 610C1616.13 612.052 1616.05 613.747 1616 616C1612.8 616.261 1610 616.874 1607 618L1607 602L1605 602L1606 618L1604 618L1604 602C1601.91 606.974 1603 613.638 1603 619L1601 619L1601 609C1599.56 612.432 1600 616.3 1600 620C1595.91 620.602 1591.98 621.871 1588 623L1587 592C1589.62 591.8 1592.21 591.625 1593.4 588.852C1594.81 585.544 1593.32 581.407 1593.09 578C1592.59 570.716 1592.31 563.286 1592 556C1598 556.813 1602.89 559.931 1609 560L1609 575C1610.66 571.041 1610 566.263 1610 562C1614.26 563.369 1617.41 564.948 1622 565L1622 582C1623.98 577.276 1623 571.09 1623 566C1624.98 567.455 1626.6 569.518 1628 567C1629.69 572.726 1629 579.057 1629 585C1627.44 581.28 1627.46 577.926 1627 574C1625.34 577.959 1626 582.737 1626 587L1631 586L1631 569C1637.08 570.406 1642.78 573.377 1649 574C1649 578.761 1648.89 583.345 1650 588C1651.2 584.107 1650 579.149 1650 575C1652.33 575.88 1654.56 576.493 1657 577C1654.91 577.238 1653.11 577.184 1651 577C1653.22 578.663 1655.29 579.355 1658 580C1658 577.915 1657.86 578.276 1660 578C1649.62 570.156 1633.96 568.674 1622 564.185C1593.61 553.527 1565.39 542.282 1537 531.575C1473.85 507.754 1409.46 487.789 1346 464.95C1330.25 459.281 1315.39 451.679 1300 445.431C1276.56 435.913 1252.59 427.77 1229 418.63C948.979 310.108 665.86 208.91 381 114.47C301.493 88.1106 221.889 61.2706 142 35.8218C128.835 31.6281 115.903 26.3748 102.715 22.4406C94.2229 19.9073 85.3345 17.9753 77 14.9598C63.2795 9.99573 48.4322 2.75891 34 0.439819C23.0694 -1.31653 11.06 0 0 0z"/>
<path style="fill:#3e394a; stroke:none;" d="M34 0C41.225 3.55835 49.3259 5.59106 57 8.01392C72.2418 12.8262 87.5796 17.6464 102.715 22.7207C150.712 38.813 198.804 54.1237 247 69.5934C278.841 79.8134 310.599 90.7986 342 102.001C351.818 105.503 362.173 107.378 372 110.904C414.57 126.178 457.834 139.825 500.285 155.559C509.616 159.018 519.522 161.28 529 164.356C546.775 170.124 564.216 177.247 582 183.204C585.259 184.295 588.731 184.429 592 185.544C603.859 189.587 615.426 194.654 627.17 198.83C669.516 213.888 712.59 227.327 754.714 242.71C831.445 270.729 908.557 297.845 985 326.555C1044.7 348.976 1104.14 372.303 1164 394.19C1170.85 396.695 1178.05 398.409 1184.91 401.015C1199.38 406.513 1213.56 413.033 1228 418.63C1251.59 427.77 1275.56 435.913 1299 445.431C1311.08 450.335 1322.73 456.555 1335 461.245C1366.2 473.174 1398.44 482.428 1430 493.344C1478.94 510.273 1527.55 528.149 1576 546.424C1594.68 553.469 1613.15 560.896 1632 567.231C1641.32 570.363 1650.43 574.732 1660 577C1657.8 578.332 1657.62 577.86 1658 580L1651 578C1653.09 577.762 1654.89 577.816 1657 578C1654.81 576.426 1652.6 575.759 1650 575C1650 579.436 1650.19 583.631 1651 588C1648.8 583.424 1649 578.995 1649 574C1642.83 572.939 1637.23 569.92 1631 569L1631 586C1629.12 586.176 1627.8 586.438 1626 587L1626 574C1627.46 577.406 1627.32 581.326 1628 585C1630.19 579.778 1629 572.632 1629 567C1627.8 567.598 1628.02 567.466 1627 569C1625.59 567.608 1624.73 566.927 1623 566L1623 582C1621.39 576.563 1622 570.642 1622 565C1617.56 564.868 1614.24 562.841 1610 562L1610 575C1608.57 570.147 1609 565.036 1609 560C1602.99 559.821 1598.05 556.495 1592 556C1592.16 563.579 1592.57 571.424 1593.09 579C1593.52 585.306 1594.84 590.776 1587 592L1588 623L1600 620L1600 609C1600.99 612.35 1601 615.514 1601 619L1603 619L1603 602C1604.52 607.146 1604 612.66 1604 618L1606 618L1605 602L1607 602L1607 618C1609.99 617.158 1612.92 616.416 1616 616L1616 610C1616.56 611.801 1616.82 613.122 1617 615C1617.98 612.668 1617.98 610.543 1618 608C1618.72 610.418 1618.95 612.472 1619 615C1621.34 609.415 1619.25 602.853 1619 597L1623 597L1625 588L1627 593C1623.6 593.729 1624.01 595.806 1624 599C1625.3 598.35 1625 598.853 1625 597C1625.39 599.22 1625.34 600.754 1625 603C1623.82 600.766 1623.07 599.388 1621 598L1621 614L1627 613L1627 603C1628.59 604.297 1629.02 604.535 1631 605C1628.93 606.339 1628.48 606.635 1628 609L1636 608C1632.69 609.376 1628.83 609.129 1628 613C1632.77 612.384 1637.32 611.069 1642 610L1641 580C1643.57 588.71 1643.62 599.933 1643 609C1648.23 608.728 1651.55 607.609 1652 602L1653 604C1653.78 602.231 1653.91 600.964 1654 599L1656 605C1654.2 605 1654.48 605.014 1653 606C1658.74 607.578 1659.94 602.652 1660 598C1660.72 600.418 1660.95 602.472 1661 605C1675.77 602.134 1692.71 594.27 1708 596.228C1713.95 596.989 1719.63 601.225 1725 603.691C1739.09 610.162 1752.91 617.222 1767 623.691C1802.86 640.155 1838.14 657.845 1874 674.309C1889.4 681.38 1904.31 689.564 1920 696L1920 367C1907.7 375.663 1897.16 387.732 1886 397.83C1862.54 419.049 1839.16 440.37 1816 461.911C1787.87 488.072 1759.49 514.06 1731 539.83C1714.02 555.19 1696.46 570.205 1681 587L1682 583C1675.36 579.126 1668.23 576.403 1661.42 572.911C1641.67 562.771 1621.87 552.69 1602 542.753C1591.95 537.726 1578.65 528.154 1567 530L1567 526L1558 524C1557.49 519.518 1552.65 518.66 1549 516.833C1539.37 512.02 1529.76 507.444 1520 502.833C1480.72 484.283 1442.61 463.322 1403 445.167C1396.09 441.998 1389.55 438.692 1383 435.167C1380.15 433.633 1376.68 434.564 1374 432.667C1372.11 431.329 1371.14 429.281 1369 428.167C1366.53 426.878 1355.91 427.41 1359 423C1353.8 420.883 1349.62 420.004 1344 420C1343.01 414.218 1336.77 412.633 1332 410.247C1319.7 404.098 1307.62 397.439 1295.29 391.414C1263.81 376.037 1233.29 358.719 1202 342.961C1189.4 336.615 1175.8 326.817 1162 323.471C1156.31 322.091 1153.95 324.981 1148.96 326.326C1146.46 327 1143.54 326.198 1141 326L1141 323C1134.64 323.023 1132.5 326.306 1127 328C1126.75 322.097 1125.6 316.871 1127 311C1119.84 311.001 1113.09 312.44 1106 313C1105.69 309.876 1104.8 307.028 1104 304C1098.56 303.887 1093.42 302.236 1088 302C1089.51 299.929 1090.92 298.504 1093 297C1089.81 286.532 1082.18 283.342 1073 278.753C1058.88 271.696 1044.47 264.888 1030 258.576C1004.69 247.534 980.09 234.829 955 223.309C921.607 207.976 888.076 192.746 855 176.742C767.923 134.608 679.91 94.0568 592 53.6913C565.576 41.5581 539.425 28.825 513 16.6913C501.622 11.4668 489.278 3.04053 477 0.390381C471.932 -0.703613 466.162 0 461 0L431 0L335 0L34 0z"/>
<path style="fill:#c0c2b0; stroke:none;" d="M478 0C484.218 5.13245 493.604 8.19714 501 11.4244C511.442 15.981 521.591 21.2223 532 25.8612C563.917 40.0859 595.241 55.7258 627 70.3087C729.363 117.311 830.637 166.689 933 213.691C972.399 231.782 1012.09 249.629 1051 268.756C1065.66 275.966 1086.11 280.96 1093 297C1090.43 298.257 1089.27 299.446 1088 302C1093.42 302.443 1098.52 303.955 1104 304L1106 313C1113.07 312.696 1119.87 311.005 1127 311C1125.31 316.732 1126.54 322.174 1127 328C1132.4 327.08 1134.96 323.071 1141 323L1141 326C1143.87 326.362 1147.07 327.318 1149.91 326.401C1154.13 325.039 1156.13 322.321 1161 323.471C1165.59 324.555 1169.78 327.312 1174 329.319C1183.13 333.668 1191.97 338.414 1201 342.961C1232.05 358.601 1262.39 375.626 1293.58 390.999C1306.14 397.193 1318.45 403.973 1331 410.247C1335.87 412.683 1342.26 414.441 1344 420C1349.53 420.016 1353.76 421.506 1359 423C1357.47 424.023 1357.6 423.804 1357 425C1360.53 426.7 1364.51 426.691 1367.96 428.453C1370.25 429.619 1371.92 431.638 1374.17 432.84C1376.59 434.133 1379.43 434.232 1381.91 435.412C1389.94 439.233 1397.96 443.226 1406 447.109C1439.11 463.102 1472.11 479.31 1505 495.753C1517.61 502.056 1530.39 507.943 1543 514.247C1548.12 516.809 1555.08 518.863 1558 524C1561.08 524.687 1563.82 525.789 1567 526L1567 530C1580.01 529.266 1593.7 539.104 1605 544.753C1630.49 557.5 1655.7 572.05 1682 583L1681 587C1688.38 581.602 1695.28 573.436 1702 567.039C1714.09 555.536 1726.62 544.365 1739 533.17C1778.53 497.414 1818.38 461.78 1857 425.039C1872.04 410.727 1888.05 397.42 1903 383.011C1908.16 378.042 1916.83 372.954 1919.4 366C1920.62 362.692 1920 358.466 1920 355L1920 333L1920 257L1920 0L478 0z"/>
<path style="fill:#3e394a; stroke:none;" d="M0 18L0 20L4 20L4 18L0 18M0 41L0 71C9.82336 71.4489 22.2309 74.8143 31 79.1991C34.9672 81.1829 39.6057 83.1968 40.6667 88.0008C41.8157 93.2034 37.9179 96.7767 33.9961 99.3665C27.6547 103.554 20.0354 105.685 13 108.37C8.42918 110.114 4.98677 111.883 0 112L0 405C19.3709 405.053 38.7723 409.907 58 411.829C114.554 417.484 171.431 423.079 228 428.829C246.468 430.707 264.598 433.312 283 435.711C287.906 436.35 299.878 434.68 302.972 439.318C304.954 442.287 304 447.611 304 451L304 479C304 513.335 306 547.687 306 582C341.056 582 375.896 584 411 584L411 597L220 597L220 638C220 644.406 221.11 652.146 217.583 657.87C211.176 668.266 193.444 659.205 190.303 673.001C189.033 678.579 190 685.296 190 691C190 700.188 188.411 711.099 190.938 720C192.932 727.025 200.904 732.004 201 739C206.936 738.999 212.187 737.579 218 737C212.927 743.583 202.861 744.616 195 744.961C192.033 745.091 187.106 744.048 184.603 746.028C182.435 747.743 183.009 751.576 183 754L164 754C164 695.952 162 638.068 162 580C204.077 580 245.948 582 288 582L287 450C241.828 450 196.89 450.514 152 446.17C141.116 445.117 129.798 445.313 119 443.791C110.01 442.523 102.107 436.802 93 435.325C76.5358 432.655 59.568 432.407 43 430.83C28.7619 429.475 14.302 427.002 0 427L0 926C7.7762 925.93 15.2922 923.291 23 922.289C44.6936 919.47 66.3997 914.926 88 911.326C100.225 909.288 112.72 906.915 125 905.209C128.653 904.701 132.347 905.176 136 904.536C190.433 895.002 244.592 884.067 299.039 875.089C320.49 871.553 341.762 867.412 363 862.594C369.12 861.206 374.895 861.891 381 859.951C386.35 858.25 398.191 861.264 401.972 856.4C404.035 853.747 403 848.148 403 845C403 835.003 403.457 824.93 402.285 815C401.273 806.418 402.338 797.622 401.961 789C400.94 765.698 401 742.371 401 719C428.156 719 454.792 713.044 482 713C492.471 712.983 506.983 708.854 508 724C494.445 724 481.474 727.371 468 727.961C461.515 728.245 452.688 726.554 447.474 731.51C438.83 739.726 443 755.486 443 766L443 858C436.849 858.004 430.571 858.514 425 861.442C421.062 863.512 418.354 867.441 414 868.721C407.583 870.609 400.546 869.977 394 871.36C377.317 874.886 360.761 878.727 344 881.999C284.795 893.557 225.161 901.773 166 913.375C135.844 919.289 106.578 927.136 76 931L75 938C73.3648 937.455 73.5451 937.635 73 936C69.5224 939.268 66.9168 938.159 65 934C62.0679 934.014 59.0428 932.956 56.1551 933.309C48.4279 934.254 40.7182 937.475 33 938.741C27.4161 939.657 21.6209 938.572 16 939.174C10.5539 939.757 5.26567 941.603 0 943L0 1012C14.7634 1011.36 29.6535 1005.99 44.0008 1003C74.7759 996.6 105.509 989.806 136 982.411C145.257 980.165 154.788 979.229 164 977.111C235.668 960.637 307.303 944.642 379 928.636C403.895 923.078 429.005 917.722 454 912.486C468.827 909.38 483.892 904.317 499 903C499 860.521 495 818.449 495 776L532 776C532 805.383 534 834.603 534 864C534 870.417 535.03 877.834 532.946 883.985C532.249 886.044 529.343 890.135 531.657 892.012C536.241 895.729 549.182 891.45 554 889.754C559.82 887.704 566.031 887.508 572 885.83C582.776 882.801 594.087 879.405 605.089 877.255C624.711 873.42 643.826 867.373 663.17 862.451C710.346 850.445 758.25 841.463 805 827.879C819.866 823.559 835.707 819.549 851 817.089C855.003 816.445 858.952 815.31 862.999 815.036C864.995 814.9 867.574 815.162 868.972 813.397C871.423 810.302 870 802.731 870 799C870 785.616 869 772.388 869 759C869 724.942 866.527 690.967 865.039 657C864.167 637.081 865 616.94 865 597C839.343 597 813.743 599 788 599C788 620.402 790.45 641.679 791.911 663C792.794 675.895 791.938 689.074 792.001 702C792.032 708.377 793.36 714.592 792.911 721C792.587 725.612 791.596 730.96 788.501 734.561C784.184 739.583 779.239 740.694 779 748C735.338 748 693.581 764.995 650 765C650 723.924 648 683.08 648 642C657.497 642.486 666.315 645.999 676 646C676 658.346 677.421 670.683 677.961 683C678.935 705.242 678 727.734 678 750C693.792 749.869 709.494 745.84 725 743.325C740.678 740.781 757.11 739 773 739C769.002 688.346 768 637.897 768 587C778.364 587.029 788.587 589.73 799 589.985C821.081 590.526 842.911 588 865 588C865 529.245 859 470.77 859 412C864.459 414.471 870.071 416.992 876 418C876 535.212 887 651.825 887 769L908 769L908 783C899.115 783.183 890.111 785.362 887.498 795C886.395 799.071 887 803.814 887 808C912.929 804.508 937.995 797.878 963 790.276C979.093 785.384 996.911 778.143 1014 778C1014 755.615 1012 733.446 1012 711C1001.27 711 992.397 712.616 982 715C981.975 677.044 980 639.052 980 601C984.095 601 991.139 599.663 994.682 602.028C997.002 603.576 996.949 606.516 996.995 609C997.108 614.996 997 621.003 997 627L1042 627L1042 634C1031.28 634 1020.72 635 1010 635C1006.67 635 1000.38 633.825 997.603 636.028C993.939 638.93 996.201 649.78 995.911 654C994.766 670.622 992 687.278 992 704L1013 704C1015.66 704.005 1019.33 703.533 1021.4 705.603C1023.85 708.061 1022.94 712.87 1023.01 716C1023.22 724.345 1024 732.603 1024 741L1033 741L1033 754L1025 754L1025 773C1055.62 770.33 1084.13 753.346 1115 752C1115 722.919 1114.23 694.006 1112.96 665C1112.68 658.652 1111.32 652.348 1111.04 646C1110.27 628.326 1112.85 610.256 1109 593C1119.3 601.706 1118 610.73 1119.17 623C1121.13 643.557 1121 664.326 1121 685C1132.37 684.999 1142.81 681.007 1154 681C1154 671.17 1151.25 661.729 1151.01 652C1150.53 632.066 1152.52 612.946 1150 593C1162.1 602.74 1157.44 622.382 1158.04 636C1158.39 643.998 1159.9 651.989 1160 660C1160.07 666.612 1161.1 674.156 1157.44 679.996C1152.12 688.482 1142.2 689.584 1133 690.714C1130.02 691.079 1125.09 690.061 1122.6 692.028C1119.78 694.261 1121 700.849 1121 704C1121 713.643 1121.92 723.409 1122.83 733C1123.17 736.546 1122.06 741.427 1123.74 744.678C1126.06 749.152 1137.38 745.243 1141 744.204C1151.57 741.172 1162.36 738.852 1173 736.127C1179.89 734.363 1186.34 732.907 1189.66 725.961C1194.81 715.175 1188.53 700.204 1188.04 689C1186.63 657.04 1185.66 624.995 1185 593C1193.95 601.05 1192 616.118 1192 627C1192.01 653.635 1194 680.275 1194 707C1210.4 704.761 1203 684.684 1203 674C1203 639.503 1199 605.401 1199 571L1173 571C1173 603.725 1177 636.195 1177 669C1177 679.456 1181.83 692.914 1178.12 702.961C1173.92 714.357 1158.7 717.546 1148 718.875C1145.25 719.216 1134.05 721.656 1134.92 716.089C1135.54 712.1 1142.23 713.001 1145 713C1151.5 712.997 1156.77 711.932 1163 710.139C1165.6 709.39 1168.61 708.786 1170.25 706.428C1176.32 697.665 1171.46 685.517 1171.04 676C1170.6 666.015 1171.4 655.985 1170.96 646C1170.75 641.281 1169.41 636.705 1169.09 632C1168.35 621.285 1168.19 610.722 1167.17 600C1166.45 592.423 1167.05 584.607 1167 577C1166.97 573.482 1167.14 569.864 1162.94 569.148C1157.28 568.184 1150.74 568.924 1145 569.004C1142.79 569.035 1139.58 568.781 1138.03 570.742C1135.31 574.19 1138.63 582.963 1138.91 587C1139.87 600.933 1137.85 615.095 1139.17 629C1140.06 638.34 1141.96 651.694 1132 657C1132 626.914 1130 597.069 1130 567L1096 567C1096 585.943 1095.21 605.076 1096.04 624C1096.3 630.02 1097.7 635.98 1097.96 642C1098.46 653.316 1097.54 664.684 1098.04 676C1098.66 690.216 1105.61 709.633 1097.89 722.91C1089.58 737.211 1072.62 730.646 1060 736.416C1057.52 737.55 1054.57 739.208 1053.01 741.518C1051.53 743.718 1051.65 746.526 1049.57 748.412C1047.18 750.571 1043.03 751.197 1040 752L1040 670C1030.55 670.746 1021.53 672 1012 672L1012 664C1024.83 663.965 1037.12 662.984 1050 664L1050 733C1063.63 730.655 1077.46 727.095 1091 724C1091 670.904 1087 618.092 1087 565C1077.25 565 1066.52 566.267 1057 564C1059.04 561.55 1061.01 557.819 1064.1 556.607C1067.4 555.318 1070.77 557.024 1074 557.625C1077.58 558.293 1081.37 558 1085 558C1085 516.203 1081 474.827 1081 433C1066.09 433 1050.74 434.101 1036 431.558C1027.77 430.138 1020.39 425.43 1012 425C1012 435.732 1013.78 446.305 1014 457C1017.61 456.99 1021.53 457.199 1024.82 455.427C1027.85 453.787 1029.37 450.177 1033.04 449.743C1038.64 449.081 1043.37 452.645 1048.43 454.289C1054.63 456.306 1061.61 457.688 1068 459C1068 475.688 1067.95 492.371 1069.09 509C1069.42 513.797 1072.3 523.482 1068.4 527.397C1066.76 529.035 1064.13 528.988 1062 529.281C1056 530.103 1050.05 530 1044 530C1044 550.04 1046 569.937 1046 590C1054.68 590 1064.11 589.876 1069.85 597.769C1075.43 605.44 1074 616.115 1074 625C1074 636.966 1073.52 649.046 1074.04 661C1074.7 676.019 1078.64 688.547 1066 700C1063.48 686.446 1065.07 671.756 1065 658C1064.9 638.396 1064 618.681 1064 599L998 599C986.718 599 974.01 597.379 963 600C965.613 601.098 968.164 600.993 971 601L971 629L958 629C958 647.401 960 665.576 960 684C960 697.702 959.109 710.387 947 719C947 687.318 945.012 655.722 945 624C944.996 613.553 938.384 598.704 948.326 590.769C955.957 584.677 964.765 590.559 973 590.96C993.563 591.961 1014.41 591 1035 591C1035 577.705 1035.54 564.282 1034.96 551C1034.51 540.616 1033 530.436 1033 520C1042.43 520.001 1051.55 522 1061 522C1058.29 501.525 1057 481.82 1057 461L1014 461L1014 481C1022.38 481.075 1031.36 484.665 1037 491L1005 491C998.761 491 992.012 490.223 986 492L986 494C995.825 497.117 992 506.605 992 515C999.435 515.067 1003.7 517.94 1009 523C1000.15 524.644 990.977 524 982 524C974.719 524 967.12 524.695 960 523C964.963 521.1 969.68 520.045 975 520C975 502.199 973.815 484.72 973.039 467C972.69 459.026 973.546 450.957 972.907 443C972.633 439.598 971.367 436.402 971.093 433C969.512 413.332 969.917 393.485 967.209 374C965.731 363.365 967 351.735 967 341C967 337.849 968.216 331.261 965.397 329.028C961.561 325.99 950.705 328 946 328C930.387 328 915.354 326.978 900 324L903 315C887.389 306.451 869.116 304.426 852.286 299.287C842.186 296.203 832.016 292.595 822.089 289C815.371 286.567 808.174 283.457 801 283L801 280C795.535 279.716 791.154 277.039 786 275.46C772.503 271.325 759.502 266.119 746 262.012C741.82 260.74 730.463 255.442 726.564 258.067C722.726 260.652 723.998 269.089 724 273C724.006 287.466 725.46 302.601 726.83 317C727.682 325.95 726.476 335.035 727.089 344C730.445 392.996 732 441.785 732 491C727.065 490.895 721.855 488.468 717.001 489.289C712.578 490.038 709.575 493.599 704.985 493.945C686.768 495.319 667.254 494.76 649 493.961C623.716 492.854 598.922 488.672 574 485.209C554.707 482.528 535.195 480.593 516 476.666C506.722 474.768 495.487 475.247 486 475.015C480.046 474.869 474.595 475.361 469 473C475.067 471.552 481.765 470.133 488 470L487 332C490.848 332.469 495.649 333.384 498.91 335.594C501.805 337.556 503.699 340.431 507.015 341.852C511.283 343.681 516.462 343 521 343L521 347L500 346L501 429L517 429C517.016 433.655 516.775 437.128 522 438C522.046 443.56 521.766 452.058 524.854 456.826C529.183 463.508 536.073 462.615 543 463.089C551.391 463.665 559.702 465.015 568 466.208C581.306 468.122 594.602 468.831 608 470.171C621.067 471.477 633.951 474.111 647 475.714C667.405 478.22 687.67 480.011 708 483C708 473.877 706.711 465.068 706.089 456C705.407 446.037 706.397 435.976 705.961 426C705.625 418.33 704.375 410.67 704.039 403C702.492 367.661 702.506 332.284 700.089 297C699.094 282.467 700 267.568 700 253C700 248.875 701.662 240 698.972 236.603C697.417 234.639 694.209 235.016 692 235.001C685.67 234.957 679.329 234.929 673 235.004C659.11 235.169 645.843 236.626 632.001 233.799C619.829 231.314 607.339 224.793 595 224C598.063 220.493 601.761 219.626 606 218L605 211C600.87 211.003 595.869 212.86 591.964 212.143C584.654 210.8 576.596 205.471 570 202.155C558.085 196.166 545.805 190.593 533 186.711C525.492 184.434 517.509 184.135 510 182.134C490.483 176.935 472.189 168.28 453 162.086C447.432 160.289 441.513 160.445 436.001 158.571C425.931 155.147 416.93 149.944 407 146.267C389.386 139.745 371.156 135.004 353.17 129.549C338.438 125.081 324.305 119.635 309 116.924C299.956 115.321 290.74 114.275 282 111.311C268.438 106.711 256.371 100.154 242 97.615C231.99 95.8463 219.913 95.554 215 106C203.857 101.361 195.268 98 183 98C183 117.732 181.497 137.324 181.015 157C180.028 197.279 181 237.707 181 278C184.082 277.276 186.8 276.208 190 276C191.057 279.492 192.418 280.432 196 281C191.298 283.263 186.068 283.205 181 284.349C168.981 287.064 157.344 290.56 145 289C148.503 282.585 158.629 286.399 161.397 280.686C163.686 275.96 162 267.18 162 262L162 216C162 163.316 164 110.665 164 58C142.503 58 121.397 55.5551 100 54.0895C83.7075 52.9736 67.2637 53.5677 51 51.8264C33.4139 49.9436 16.8516 46.4091 0 41z"/>
<path style="fill:#c0c2b0; stroke:none;" d="M0 71L0 112C10.7284 111.904 26.0681 105.361 34.9846 99.3665C39.4765 96.3467 42.5237 91.5933 40.3966 86.0185C38.8583 81.9868 34.5581 80.4761 31 78.696C22.3964 74.3917 9.62311 71.205 0 71M644 104C639.71 108.175 638.466 113.151 638 119C642.956 116.133 646.187 109.606 644 104M188 132C186.796 134.265 185.33 136.869 187.032 139.362C188.714 141.825 192.352 142.524 195 143.35C201.427 145.356 208.276 147.464 215 148L215 140C213.805 141.223 213.684 141.42 213 143C204.895 140.033 195.28 136.656 188 132M672 141C673.505 144.012 674.76 145.075 678 146C676.906 142.71 675.326 141.814 672 141M284 154C284 223.305 286 292.609 286 362C275.535 362 266.205 359.993 256 358.325C238.077 355.395 219.993 352.244 202 349.325C184.755 346.527 167.137 345.545 150 342.741C131.678 339.742 113.423 336.637 95 334.286C80.8243 332.476 66.5142 329.79 52.7145 326.455C49.0929 325.58 43.4706 327.264 40.6034 324.397C37.8675 321.661 39 315.526 39 312L41 312C41.0586 317.252 41.7117 321.023 47 323C46.727 316.642 45.3177 310.356 45.0394 304C44.4105 289.64 45.0712 275.336 44.0895 261C43.73 255.75 45.1725 250.124 44.5278 245C43.7209 238.588 38.3784 233.904 38.0401 227C37.7382 220.838 37.4939 214.121 38.2894 208C39.0842 201.884 40.9485 196.221 41 190C44.135 190 47.8299 190.498 50.8302 189.437C55.4511 187.802 58.665 183.208 63 181C61.6977 173.477 45.6187 171.155 39 171C37.4942 159.742 26.4815 158.001 17 158C17 218.39 15 278.633 15 339C11.8782 339.026 9.03956 339.276 6 340L6 342C16.6238 345.596 28.0151 345.896 39 347.129C48.2536 348.168 57.7053 350.067 67 351.289C100.867 355.742 134.208 361.281 168 366.561C186.643 369.474 204.766 372.628 223.09 377.157C228.142 378.406 233.03 378.189 238 380L234 382C240.941 388.063 251.382 387.559 260 386.424C269.339 385.195 278.796 383.8 288 381.625C295.822 379.777 302.95 376.781 311 375.468C317.541 374.4 324.386 376.945 331 377C325.12 368.546 312.975 371 304 371L304 311C309.759 311.251 315.2 312.952 321 313L321 308C306.598 305.56 301.022 295.957 301 282C300.989 274.971 298.827 265.7 308 265C308 261.722 307.62 258.108 308.857 255C310.294 251.39 312.963 248.81 314 245L331 246C326.07 237.723 315.96 240.909 309.34 235.312C298.903 226.488 303 208.77 303 197C313.491 197.857 323.618 201.474 334 203C341.252 189.921 360.241 198.217 371 201.656C373.65 202.503 376.314 202.804 379 203.454C392.046 206.613 404.551 211.505 417.285 215.599C439.102 222.613 461.013 229.017 483 235.335C497.241 239.427 514.903 238.31 526 250L519 250L519 255C533.91 256.817 548.008 263.379 563 264.83C587.625 267.215 612.303 265 637 265C637 300.41 639.495 335.721 641.911 371C642.873 385.058 640.427 399.015 641.039 413C641.283 418.568 643.311 423.586 644 429C640.014 429.217 637.662 429.983 635 433C646.492 433 657.52 431 669 431C669 393.771 664.563 357.099 665.004 320C665.127 309.637 667 299.453 667 289C667 283.036 667.176 277.419 663.826 272.184C657.761 262.711 645.808 259.464 636 255.772C614.683 247.747 592.743 242.107 571.015 235.54C550.403 229.31 529.63 223.8 509 217.637C481.85 209.527 454.983 199.89 427.715 192.441C416.477 189.371 405.013 186.91 394 183.204C376.516 177.32 358.65 172.243 341 166.818C322.505 161.133 303.624 154.013 284 154M788 178C788 184.336 786.994 192.243 794 195L793 186C797.865 188.358 803.585 189.843 809 190L809 207L814 207L814 186C805.161 183.212 797.308 179.202 788 178M392 249C392 342.096 396 434.872 396 528C387.958 528 379.673 528.402 372 531C379.1 533.979 390.194 532.33 398 533.166C422.321 535.77 446.603 535.029 471 533.961C477.707 533.667 484.266 532.056 491 532C491 571.073 493 609.906 493 649C425.21 649 357.784 655 290 655L290 647C288.339 650.959 289 655.74 289 660C289 670.743 290.723 681.302 290.985 692C291.9 729.325 293 766.681 293 804C268.481 804 244.164 808.257 220 811.7C207.797 813.439 195.272 813.719 183 815.286C157.3 818.566 131.752 822.678 106 825.17C89.7951 826.738 74.4061 831 58 831C67.1879 828.283 81.0588 828.27 84 817C75.9077 817.644 68.0026 819.973 60 820.871C53.7923 821.568 47.245 821 41 821L41 812C55.4377 812 69.6383 810 84 810C84 763.267 82 716.738 82 670L65 670L65 666L73 666L73 663L65 662C65 655.808 63.3667 646.885 65.7415 641.093C67.4665 636.887 71.9392 634.239 74 630C70.9592 629.1 68.1691 629.008 65 629L65 604C65.0002 600.899 64.1775 596.029 66.6034 593.603C69.4826 590.724 76.2788 592 80 592L80 522C66.3377 522.113 52.7693 524 39 524L39 517C74.0446 517 108.928 519 144 519C153.694 519 169.873 521.829 177.125 513.451C179.603 510.588 180.386 505.624 181 502C159.75 501.998 138.145 498.19 117 496.17C83.2135 492.941 48.9735 492 15 492C15 572.716 13.0394 653.373 15.0147 734C15.9876 773.713 19 813.171 19 853C23.542 852.962 27.5504 851.717 32 851.184C45.2798 849.594 58.6746 848.464 72 847.17C132.76 841.266 192.503 829.954 253 822.714C260.057 821.87 266.943 820.13 274 819.286C278.319 818.769 282.693 819.313 287 818.7C294.035 817.697 300.905 815.079 308 815L308 805C318.726 804.97 329.275 802.221 340 802C340 757.241 338 712.731 338 668C417.828 668 497.167 657 577 657C577 700.4 579 743.604 579 787L579 819C579 823.451 578.312 829.001 581.804 832.436C586.583 837.136 594.527 834.225 600 832.898C607.906 830.981 616.092 830.272 624 828.546C628.96 827.462 633.935 825.607 639 825.103C657.403 823.274 675.85 817.703 694 814.004C717.282 809.258 740.851 806.005 764 800.664C786.07 795.573 808.033 787.474 831 787L831 780L841 780L840 638C833.234 637.86 826.82 636.005 820 636C820 669.435 821.607 702.631 822.004 736C822.146 747.972 829.118 761.605 822.366 772.906C818.796 778.88 812.12 779.222 806 780.514C792.79 783.302 779.396 786.615 766 788.285C751.757 790.061 737.937 793.892 723.911 796.755C695.477 802.559 666.578 808.087 638 812.208C628.545 813.572 619.589 817.242 610 818C610.126 811.912 611.952 806.091 611.995 800C612.09 786.61 609.623 773.305 609.039 760C608.543 748.684 609.456 737.316 608.961 726C608.668 719.323 607.332 712.677 607.039 706C606.211 687.076 607 667.943 607 649C601.334 649 594.487 651.239 589.089 650.513C584.421 649.885 581.164 646.276 576 646.039C553.767 645.02 531.259 646 509 646C514.651 643.28 520.852 644 527 644L527 567C527 560.667 526.957 554.333 527.001 548C527.017 545.582 526.732 542.474 528.603 540.603C530.859 538.348 535.114 539.001 538 539C545.332 538.997 552.669 538.917 560 539.004C579.995 539.242 600.121 541.517 620 542.911C631.23 543.698 642.741 543 654 543L654 530C604.987 530 556.816 523.177 508 521.039C493.337 520.397 478.681 519 464 519C457.695 519 447.747 520.861 442.094 517.682C437.922 515.336 437.302 511.314 436.719 507C435.49 497.904 437 489.115 437 480C437 473.758 437.775 468.38 431 466C432.103 471.371 433.565 476.485 434 482C427.98 479.788 420.868 475.554 415 480C409.555 472.735 409.527 460.796 408.91 452C407.273 428.642 409 405.41 409 382C409 377.022 409.25 371.968 408.91 367C408.523 361.341 407.197 355.139 410.6 350.015C416.016 341.858 424.819 344.995 433 345L433 398C437.704 391.791 435 377.625 435 370C435 343.965 433 318.088 433 292C454.163 293.684 473.958 301.574 495 303.826C519.125 306.409 543.843 302 568 302C568 327.974 567.379 354.034 568.015 380C568.248 389.522 572.772 402.874 569.157 411.961C565.964 419.984 557.426 421.345 550 423C553.932 424.646 557.871 423.417 562 423.086C567.003 422.684 574.552 423.078 578.427 419.347C581.485 416.403 580.998 411.873 581 408L581 380C581 375.906 579.307 366.708 582.603 363.643C585.517 360.933 592.453 363.718 596 364L596 414L584 414C585.142 420.841 595.259 419.882 601 420C600.944 399.762 599.925 379.225 599.039 359C598.629 349.638 599.72 340.264 598 331C593.428 337.693 596 351.079 596 359C576.363 352.879 579 327.41 579 311C584.976 311.066 589.382 313.658 595 315C595.88 311.306 595.997 307.786 596 304C583.914 301.852 573.754 293.25 562 289.876C528.57 280.278 494.519 274.03 461 264.842C438.843 258.768 415.222 249.064 392 249z"/>
<path style="fill:#3e394a; stroke:none;" d="M718 262C715.079 269.17 715 275.337 715 283L721 283L721 262L718 262M650 274C650 283.609 649.433 293.413 650.089 303C650.501 309.008 651.838 314.973 651.985 321C652.687 349.65 651.302 378.35 652.015 407C652.183 413.751 653.999 420.166 654 427L665 427C665 411.795 661.793 397.288 663 382C659.792 382.571 657.011 383.772 654 385C654 379.6 653.742 374.282 655 369C657.113 370.501 658.403 370.822 661 371C661 360.38 662.984 349.584 661.714 339C660.975 332.833 656.745 326.83 656.461 321C656.298 317.665 658.205 314.228 658.88 311C660.052 305.398 660.046 299.666 660.714 294C661.204 289.848 662.817 279.17 659.397 276.089C656.987 273.919 653.015 274.064 650 274z"/>
<path style="fill:#c0c2b0; stroke:none;" d="M758 294C758 375.545 766 456.445 766 538C759.868 537.983 754.075 536.508 748 536.089C734.987 535.193 722.064 535 709 535L710 588C686.69 588 663.303 588.556 640 587.985C618.313 587.454 596.773 586 575 586L575 597L551 597L551 599C585.153 599.705 619.715 599.825 654 598.985C673.024 598.519 691.882 597 711 597C711 624.28 711.846 651.749 713.039 679C713.378 686.727 714.999 694.224 715 702L723 702L723 696L738 696C738 647.195 734 598.775 734 550C764.086 550 793.971 552 824 552C821.407 532.668 794.415 548.596 788.429 530.995C781.685 511.169 785.999 489.419 786 469C786.002 436.7 783.294 404.198 781.089 372C780.272 360.066 782.135 347.877 780.576 336C780.103 332.401 778.62 325.259 782.434 322.867C784.446 321.604 786.963 322.963 789 323.456C793.974 324.659 799.024 325.553 804 326.745C813.871 329.111 824.278 331.389 833.911 334.541C843.915 337.814 853.088 342.88 864 343C860.438 353.328 871.666 352.877 879 354.455C896.487 358.218 916.094 356 934 356C934 394.026 937.997 431.909 938 470C938.001 479.795 941.371 489.355 940.961 499C940.718 504.701 938.353 509.57 937 515C942.535 516.317 947.431 515.239 953 515C953 489.077 951.856 463.793 950.089 438C949.086 423.352 949.561 408.618 948.17 394C947.394 385.849 947.003 377.185 947 369C946.999 365.407 948.057 359.698 945.972 356.553C943.353 352.602 937.143 351.18 933 349.585C922.815 345.663 912.281 342.477 902.17 338.508C876.287 328.35 849.121 321.695 823 312.19C802.562 304.753 780.058 294.455 758 294z"/>
<path style="fill:#3e394a; stroke:none;" d="M713 303C711.208 316.31 709.105 331.823 713 345C721.31 332.483 715.038 316.666 715 303L713 303z"/>
<path style="fill:#c0c2b0; stroke:none;" d="M329 311L329 315L334 315L334 311L329 311z"/>
<path style="fill:#3e394a; stroke:none;" d="M980 343L980 377C983.724 377 988.304 377.682 991.826 376.272C995.635 374.748 997.478 370.218 1002.01 370.493C1013.38 371.182 1025.49 377.731 1036 381.634C1050.23 386.92 1065.45 390.327 1080 394.692C1091.07 398.013 1101.54 401.31 1107.77 412.004C1114.14 422.938 1111 440.833 1111 453C1111 460.987 1112.17 468.179 1112.9 476C1113.42 481.636 1112.7 487.353 1113.09 493C1113.94 505.447 1115 517.474 1115 530C1125.7 530.089 1136.27 532 1147 532C1147 519.037 1147.53 505.95 1146.96 493C1146.54 483.283 1144.75 473.685 1144.09 464C1143 448.062 1143 431.992 1143 416C1158.72 420.984 1174.56 425.677 1190.09 431.33C1197.95 434.19 1206.08 436.334 1210.62 444.04C1214.73 451.011 1214 459.251 1214 467C1214 478.075 1214.55 488.966 1215.04 500C1215.36 507.233 1215.48 514.794 1216.17 522C1216.9 529.64 1218.92 537.737 1212 543C1212 509.182 1208 475.829 1208 442L1184 442C1184 457.768 1186 473.249 1186 489L1179 489L1178 431L1150 431C1150 456.436 1152.99 481.668 1153 507C1153 513.666 1152.95 520.334 1153 527C1153.02 529.209 1152.64 532.417 1154.6 533.972C1156.91 535.796 1161.28 534.948 1164 535.015C1170.74 535.18 1178.45 535.44 1185 537C1171.3 546.874 1156.38 541.346 1141 539.209C1128.5 537.473 1115.63 537 1103 537C1104.22 535.805 1104.42 535.684 1106 535C1106 492.186 1102 449.767 1102 407C1085.03 407 1067.76 408.113 1051 405L1052 400C1046.48 398.01 1041.5 394.649 1036 392.764C1027.92 389.993 1019.28 389.148 1011 387.486C1001.28 385.536 991.838 383.325 982 382C982 417.203 986 451.863 986 487L1003 487C1003 459.234 1001 431.766 1001 404C1010.32 406.33 1019.08 410.798 1028.29 413.584C1039.38 416.942 1051.01 418.418 1062 422.139C1069.37 424.633 1078.67 426.184 1084.23 432.17C1091.9 440.425 1090.98 458.513 1091 469C1091.02 479.603 1090.36 490.422 1091.09 501C1092.39 520.06 1095 538.838 1095 558L1102 558L1102 543L1117 543L1117 558L1121 558C1121 554.831 1120.18 550.088 1122.03 547.318C1124.72 543.28 1133.8 545 1138 545L1137 558C1139.57 556.392 1140.29 554.944 1141 552C1142.56 555.695 1142.97 559.007 1143 563C1161.68 563 1180.35 564.846 1199 565C1199 553.073 1198.96 540.865 1197.83 529C1197.54 525.929 1197.88 519.176 1194.68 517.603C1192.25 516.409 1188.62 517 1186 517C1180.07 517 1173.75 517.674 1168 515.985C1165.74 515.32 1162.22 514.708 1160.83 512.582C1159.09 509.924 1162.14 507.689 1163.16 505.486C1164.09 503.479 1164.04 501.162 1163.91 498.999C1162.95 483.585 1162 468.495 1162 453L1165 453C1165.53 459.597 1168.02 465.567 1169.33 472C1170.5 477.676 1170.71 484.203 1170.96 490C1171.18 494.986 1169.77 502.27 1173.82 506.147C1179.53 511.613 1189.8 511 1197 511C1197 494.612 1195 478.398 1195 462L1197 462C1197.72 467.428 1200.23 472.474 1200.83 478C1202.02 489.173 1200.74 500.77 1201.01 512C1201.2 519.677 1202.78 527.323 1202.99 535C1203.17 542.065 1204.43 548.964 1204.91 556C1205.1 558.75 1204.19 563.074 1206.03 565.397C1207.58 567.361 1210.79 566.984 1213 566.999C1218.66 567.038 1223.58 566.717 1229 565C1227.93 557.056 1225.49 548.973 1225.04 541C1223.88 520.057 1225.98 498.951 1224.96 478C1224.78 474.237 1223.39 470.738 1223.09 467C1222.59 460.691 1223.37 454.313 1222.91 448C1222.22 438.546 1221 429.595 1221 420C1209.23 420 1197 423.134 1186 418C1186.96 416.483 1187.39 415.662 1188 414C1169.02 407.105 1150.78 395.95 1130 395C1130 421.133 1128.72 448.103 1132.43 474C1133.88 484.117 1136.9 498.86 1126 505C1126.83 464.627 1122 424.441 1122 384C1106.92 384 1090.69 385.799 1076 382L1076 380C1078.84 378.873 1079.49 378.013 1080 375C1069.97 373.777 1060.51 368.496 1051 365.348C1036.93 360.689 1022.04 358.512 1008 353.508C998.544 350.139 989.928 345.039 980 343z"/>
<path style="fill:#c0c2b0; stroke:none;" d="M812 356C812 405.569 816 454.527 816 504C821.785 503.704 827.12 502.004 833 502C833 462.618 831 423.338 831 384C847.007 384.133 862.919 386 879 386C883.417 386 893.008 384.214 896.397 387.603C898.468 389.674 897.994 393.341 898 396C898.014 402.383 898.99 408.63 899 415C899.04 440.107 901.401 464.937 902.015 490C902.163 496.038 903.697 501.972 903.961 508C905.289 538.333 905.711 568.666 907.039 599C907.505 609.635 908.87 620.356 908.996 631C909.341 660.025 910 689.006 910 718C910 737.501 908.555 757.653 911 777C912.942 774.44 912.965 772.192 913 769L917 769L917 780C922.098 779.314 926.971 777.706 932 776.666C934.273 776.196 937.495 776.424 939.415 774.973C941.414 773.463 941.842 770.24 943.108 768.174C945.013 765.065 947.902 762.85 951.015 761.042C961.441 754.989 974.136 754 986 754L986 746C965.576 746.877 946.315 755.072 926 756L926 743L941 743L941 720L925 720C925 699.1 925.58 677.815 923.907 657C923.051 646.357 921.51 635.76 921.039 625C920.043 602.242 923.376 580.564 919 558C950.042 558 980.924 560 1012 560L1012 554C997.314 553.99 982.59 551.564 968 550.17C951.708 548.613 935.386 548 919 548C919 493.851 913 440.171 913 386C903.331 385.966 898.055 378.022 889 374.849C880.363 371.822 871.019 371.059 862.286 368.291C845.873 363.089 829.533 356.012 812 356z"/>
<path style="fill:#3e394a; stroke:none;" d="M715 373C713.824 382.302 712.381 391.539 713.054 400.961C713.786 411.217 716.779 421.622 717 432L719 432C719.159 424.533 721.293 417.596 720.961 410C720.419 397.637 717.102 385.364 717 373L715 373M821 387C820.364 395.053 820 402.898 820 411L822 411C822.619 403.152 824.567 394.422 821 387M824 407L829 407C829 402.812 829.552 398.193 828.852 394.059C828.626 392.725 827.991 390.559 826.17 390.921C822.312 391.688 824 404.067 824 407z"/>
<path style="fill:#c0c2b0; stroke:none;" d="M0 405L0 427C13.9459 427.009 28.1123 429.509 42 430.83C58.568 432.407 75.5358 432.655 92 435.325C101.098 436.8 109.031 442.525 118 443.791C128.797 445.315 140.117 445.117 151 446.17C196.219 450.546 241.498 450 287 450L288 582C245.951 582 204.078 580 162 580C162 638.069 164 695.954 164 754L183 754C183.029 751.575 182.718 748.481 184.603 746.603C187.069 744.148 191.864 745.062 195 744.985C202.278 744.807 214.281 744.199 218 737C212.215 737.296 206.88 738.996 201 739C201.91 732.063 192.931 726.028 190.938 719C188.495 710.382 190 699.891 190 691C190 685.601 189.106 679.283 190.303 674C193.64 659.279 210.938 668.785 217.583 658.737C221.222 653.233 220 645.246 220 639L220 597L411 597L411 584C375.895 584 341.061 582 306 582C306 547.017 304 512.005 304 477L304 449C304 446.089 304.911 441.053 302.972 438.603C299.915 434.741 288.482 436.295 284 435.711C265.598 433.312 247.468 430.707 229 428.829C172.431 423.079 115.554 417.484 59 411.829C39.4243 409.872 19.7282 405.013 0 405z"/>
<path style="fill:#3e394a; stroke:none;" d="M1227 429C1227 454.087 1229.2 479 1230.91 504C1231.5 512.637 1230.66 521.353 1231.04 530C1231.42 538.741 1233 547.194 1233 556C1233 559.63 1233.42 563.681 1231.26 566.829C1225.57 575.096 1214.66 573 1206 573C1206 614.802 1210 656.285 1210 698C1226.63 697.655 1242.51 690.754 1259 690C1249.64 698.018 1238.21 697.287 1227 700.46C1223.11 701.561 1220.6 704.669 1216.96 706.147C1213.34 707.617 1208.83 707 1205 707C1204.52 713.264 1200.78 714.523 1195 715C1195.04 716.675 1194.99 718.368 1195.39 720.01C1197.81 729.951 1208.05 726.345 1215 724.594C1226.62 721.668 1238.26 718.13 1250 715.665C1254.98 714.619 1259.99 713.616 1265 712.714C1267.28 712.305 1270.25 711.876 1271.4 709.57C1273.42 705.509 1270.98 700.076 1270.32 696C1269.23 689.229 1270 681.847 1270 675C1270 640.281 1266 605.77 1266 571L1276 571C1276 555.77 1276.95 540.193 1275.91 525C1275 511.765 1272.04 498.166 1272 485L1255 485L1255 526L1251 526C1251 508.906 1249 492.03 1249 475C1256.31 475.924 1266.69 477.37 1272.16 482.839C1277.1 487.775 1277.72 495.516 1278.58 502C1280.82 519.044 1280 536.814 1280 554L1287 554C1287 544.064 1287.61 533.912 1286.91 524C1285.62 505.63 1283 487.523 1283 469C1287.21 473.663 1287.63 479.028 1288.42 485C1290.25 498.74 1288.84 513.15 1289 527C1289.15 539.357 1292.19 549.87 1306 551C1306 523.189 1302 495.76 1302 468C1313.45 469.94 1331.45 473.43 1338.1 484.015C1341.38 489.237 1341 495.104 1341 501L1341 525C1337.88 519.163 1339.24 512.436 1338.96 506C1338.62 498.288 1337.01 490.75 1337 483C1330.58 483 1319.54 485.412 1316 479L1307 477C1307 515.853 1311 554.199 1311 593C1319.06 594.918 1321.62 601.259 1321.96 609C1322.36 617.979 1321.48 627.032 1322.09 636C1322.93 648.267 1324.56 659.692 1323 672C1319.37 664.5 1320.09 656.121 1320 648C1319.88 638.35 1319.05 628.705 1319 619C1318.97 613.971 1318.17 609.025 1317.99 604.001C1317.91 602.003 1317.98 599.421 1316.26 598.028C1313.22 595.568 1305.71 597 1302 597L1302 609C1300.61 606.473 1300.08 603.305 1298.39 600.978C1294.73 595.925 1287.44 597 1282 597C1288.64 591.222 1300.74 593 1309 593C1309 580.592 1307 568.408 1307 556L1281 556L1281 571C1286.29 571 1292.13 569.788 1295 575L1278 575.001C1275.79 575.016 1272.58 574.639 1271.03 576.603C1269.38 578.689 1270 582.531 1270 585C1270 592.749 1270.1 600.297 1270.83 608C1273.42 635.23 1274 662.628 1274 690L1283 690C1282.84 682.313 1280.62 674.722 1280.09 667C1278.93 650.09 1279 632.965 1279 616L1283 616C1283 638.426 1285 660.578 1285 683L1320 677C1309.86 685.665 1290.68 680.509 1287 696C1280.63 696 1272.52 695.012 1274.46 703.976C1274.82 705.672 1275.48 707.347 1276 709C1288.41 706.453 1301.08 703.181 1313 698.94C1318.3 697.055 1324.46 696.256 1328.3 691.621C1330.75 688.662 1330.97 684.665 1331 681C1331.06 672.664 1329.61 664.23 1328.43 656C1327.67 650.686 1328.28 645.335 1327.91 640C1326.49 619.299 1326 598.795 1326 578C1322.21 577.997 1318.69 577.88 1315 577C1317.01 568.568 1315.1 560.472 1315 552C1314.76 531.855 1313 512.079 1313 492C1319.71 492.549 1325.41 494.993 1330 500L1318 500C1318 517.35 1318.99 534.722 1319 552C1319 556.9 1316.88 568.414 1320.03 572.397C1321.41 574.142 1324.02 573.929 1326 574.166C1330.03 574.648 1333.95 575.677 1338 576C1335.94 576.637 1332.45 576.791 1331.03 578.603C1329.54 580.506 1330 583.753 1330 586L1330 605C1330 633.693 1332.74 662.402 1335 691C1343.35 690.822 1351.92 687.362 1360 685.286C1375.99 681.176 1393.6 675.633 1410 674L1409 642L1418 642C1418 651.169 1420.03 662.169 1418 671C1438.51 667.514 1458.85 659.207 1479 653.884C1484.35 652.47 1489.68 650.953 1495 649.421C1497.28 648.767 1500.45 648.323 1501.97 646.297C1504.23 643.306 1503.07 636.544 1502.99 633C1502.7 621.337 1502 609.724 1502 598L1482 598C1482.06 605.681 1483 613.278 1483 621C1483 624.513 1483.61 628.849 1481.4 631.856C1478.72 635.492 1474.08 635.659 1470 636.155C1462.66 637.049 1455.27 638.649 1448 640L1447 609L1454 610L1455 636C1462.71 635.392 1470.28 633.332 1478 633L1477 595C1485.62 596.089 1493.41 595.177 1502 595C1501.96 580.352 1500 565.656 1500 551C1506.86 557.179 1505 569.481 1505 578C1505 599.001 1507 619.939 1507 641L1513 641C1513 608.901 1510 577.021 1510 545C1502.97 544.999 1496.7 543.608 1490 546L1490 551L1493 550L1494 574L1489 574L1488 537L1514 545L1515 585C1522.63 585.157 1530.43 586.043 1538 587C1530.84 589.115 1522.43 588 1515 588C1516.71 595.179 1515.84 602.673 1516.01 610C1516.16 616.025 1517 621.937 1517 628L1521 628L1521 634L1517 634L1517 637L1532 635L1532 637C1527.07 637.045 1523.44 637.348 1521 642C1525.23 641.029 1535.26 639.978 1537.97 636.411C1539.89 633.893 1539 628.979 1539 626C1536.27 626.117 1533.69 626.499 1531 627C1531 617.585 1530.4 608.363 1530 599L1535 599L1535 605L1546 605L1546 607L1535 607C1534.55 612.718 1534 618.241 1534 624L1541 624C1541.2 628.538 1541.59 632.766 1545 636C1546.86 629.699 1546 622.542 1546 616L1538 616L1538 614L1548 614L1548 631L1558 630L1557 589L1550 589C1552.43 587.957 1554.35 587.959 1557 588L1556 556C1560.18 564.693 1559 578.395 1559 588L1561 588L1561 584L1565 584L1565 588C1565.68 586.752 1565.75 586.451 1566 585C1568.69 585.803 1570.55 587.97 1573.21 588.687C1576.82 589.661 1581.28 589 1585 589L1585 578C1581.88 577.974 1579.04 577.724 1576 577C1577.01 571.803 1576 566.305 1576 561C1578.69 567.379 1576.27 575.334 1585 576L1585 567C1587.04 573.895 1586.69 582.766 1587 590C1589.2 589.906 1590.89 589.644 1593 589C1590.87 577.521 1591 564.679 1591 553C1582.69 552.972 1576.23 548.109 1568 547C1568 556.158 1570.12 566.079 1568 575C1565.27 565.768 1566 553.656 1566 544L1554 544C1555.53 542.977 1555.4 543.195 1556 542C1547.6 539.269 1538.66 535.491 1530 534L1530 542C1540.74 540.898 1550.9 545.236 1561 549C1551.1 551.925 1541.17 544.804 1531 544L1532 570L1536 570L1536 549C1542.06 552.179 1549.34 553.473 1556 555C1549.75 556.847 1544.17 555.411 1538 554L1539 562C1541.12 561.693 1541.69 561.618 1543 560C1545.64 561.015 1549.38 561.582 1551.4 563.703C1554.64 567.11 1553 575.632 1553 580L1547 581L1547 596C1556.96 597.555 1555.66 615.53 1553 623C1550.82 615.617 1551.16 605.751 1551 598L1526 598C1527.51 600.706 1527.91 602.913 1528 606L1525 606C1525 613.406 1526.5 621.749 1522 628C1522 620.703 1522.39 613.281 1521.91 606C1521.71 602.989 1520.37 598.917 1523.32 596.773C1525.2 595.408 1527.85 595.911 1530 595.965C1534.66 596.082 1539.34 596 1544 596L1544 578C1546.42 578.722 1548.47 578.948 1551 579C1550.01 573.645 1550 568.43 1550 563L1539 563L1539 569L1544 570C1540.04 571.171 1536.11 571 1532 571C1533.57 573.72 1534.41 576.168 1537 578C1533.34 579.081 1529.8 579 1526 579C1527.48 578.014 1527.2 578 1529 578C1529 561.925 1527 546.035 1527 530C1522.96 530 1517.96 530.76 1514.13 529.276C1511.5 528.258 1509.69 526.076 1506.95 525.17C1497.91 522.192 1488.95 519.324 1480 516.053C1473.86 513.809 1464.74 509.464 1464 519L1467 519L1468 571C1461.29 571.288 1454.77 572.375 1448 571.911C1432.89 570.875 1418.23 567 1403 567L1407 566L1407 532L1412 533C1408.09 538.575 1410 548.381 1410 555L1414 555C1414.67 557.805 1415.7 561.325 1418.3 562.98C1421.6 565.083 1427.2 564.875 1431 565.421C1441.29 566.897 1451.69 567.696 1462 569C1462 548.295 1460 527.694 1460 507C1450.76 507 1442.98 506.058 1434 504C1435.74 502.889 1436.12 502.73 1437 501C1430.52 500.337 1425.14 496.661 1419 494.774C1399.04 488.637 1379.32 481.451 1359 476.625C1353.84 475.401 1349.31 472.785 1344 472L1344 468L1319 468C1316.62 458.222 1304.65 455.033 1296 453C1296 474.712 1296.51 496.378 1298.09 518C1298.44 522.746 1299.9 527.201 1300 532L1296 532C1296 503.833 1292 476.239 1292 448C1282.39 448 1273.45 447.833 1264 446C1264.96 444.483 1265.39 443.662 1266 442C1253.14 437.614 1240.89 429.922 1227 429M823 442C820.696 449.794 821.122 461.111 823 469C826.73 463.54 826.73 447.46 823 442z"/>
<path style="fill:#c0c2b0; stroke:none;" d="M321 447C323.613 448.098 326.164 447.993 329 448C326.387 446.902 323.836 447.007 321 447M1236 447C1236 495.456 1242 543.553 1242 592C1233.94 592 1218.23 589.221 1215 599C1219.81 598.887 1224.22 597.245 1229 597C1229 613.036 1229.99 628.112 1232 644C1236.14 641.011 1235 635.687 1235 631C1235 619.617 1234 608.387 1234 597L1246 597C1246 550.934 1240 505.066 1240 459C1246.84 459 1256.87 456.57 1255 466L1281 466C1277.97 459.582 1271.38 456.444 1264.99 454.067C1255.44 450.518 1246.21 447.806 1236 447M1445.33 475.667C1445.28 475.723 1445.22 476.777 1445.67 476.333C1445.72 476.278 1445.78 475.222 1445.33 475.667M1356 486L1357 539L1344 537C1344.02 538.985 1343.69 541.727 1345.03 543.398C1346.43 545.142 1349.03 544.958 1351 544.671C1356.51 543.869 1361.33 542.047 1367 542C1364.95 541.126 1363.25 541.047 1361 541L1361 526L1365 526C1359.44 519.695 1359.01 514.462 1366 509C1361.77 505.375 1361.02 502.469 1361 497C1365.71 498.72 1370.21 496.841 1375 497.861C1384.57 499.9 1393.52 503.769 1403 506.139C1405.14 506.674 1417.19 508.467 1415 511C1423.77 515.696 1435.38 514 1445 514L1446 556L1453 556C1452.97 546.667 1452 537.381 1452 528C1452 524.08 1452.88 518.683 1450.26 515.394C1447.86 512.384 1443.49 511.601 1440 510.576C1434.31 508.901 1428.75 506.868 1423 505.371C1400.49 499.51 1378.57 491.56 1356 486M1482 492C1482.18 493.878 1482.44 495.199 1483 497C1484.73 495.994 1486.05 495.453 1488 495L1488 500C1490.1 494.858 1486.41 493.307 1482 492M1330 501C1330 512.213 1331.6 522.9 1333 534C1335.3 530.958 1335 527.745 1335 524C1335 515.829 1333.35 508.94 1332 501L1330 501M1262 502C1263.13 516.327 1263 530.604 1263 545L1253 545C1253 569.726 1255 594.237 1255 619L1244 619L1244 668C1236.94 668.303 1230.09 669.98 1223 670C1223 658.985 1224.89 647.972 1223.42 637C1222.6 630.819 1222.13 626.13 1217 622L1218 676C1222.7 676 1227.34 676.096 1232 675.421C1234.66 675.035 1237.4 674.818 1239.83 673.562C1252.44 667.039 1250.74 648.056 1249.91 636C1249.71 633.04 1248.76 629.992 1249.16 627.015C1249.97 621.077 1257.43 620.803 1258.73 614.829C1259.87 609.578 1259 603.358 1259 598C1259 582.595 1257 567.354 1257 552L1268 552C1268 540.306 1269.73 528.621 1268.28 517C1267.56 511.175 1267.18 505.527 1262 502M797 505C799.052 505.874 800.747 505.953 803 506C800.948 505.126 799.253 505.047 797 505M1383 510C1383 526.724 1384 543.289 1384 560C1384 566.012 1385.75 575.051 1382 580C1389.22 584.325 1400.05 581.627 1408 581L1408 610C1396.68 610.094 1385.31 611.708 1374 611.985C1368.86 612.111 1363.92 612.744 1360 609C1358.33 610.67 1359.3 611.576 1357 611L1358 649C1353.2 649.379 1345.81 648.842 1344 654C1348.82 653.987 1354.25 653.91 1358.91 652.575C1363.04 651.394 1365.47 649.144 1370 649L1370 615C1390.07 615 1409.92 613 1430 613L1430 644C1430 647.064 1428.93 652.841 1431.03 655.382C1433.74 658.676 1443.48 655.06 1447 654.424C1463.31 651.482 1480.51 648.897 1496 643L1495 608L1490 607C1490 615.06 1490.82 622.965 1491.01 631C1491.08 633.764 1492.14 637.297 1490.88 639.891C1488.73 644.322 1482.16 644.265 1478 645.258C1464.87 648.392 1451.26 650.429 1438 653L1437 610L1412 610C1413.8 609.438 1415.12 609.176 1417 609L1417 583L1449 584L1449 581C1436.51 580.992 1423.4 579.748 1411 578.286C1406.86 577.797 1402.12 578.814 1398.11 577.682C1392.06 575.974 1395.52 568.586 1388 568C1387.67 560.296 1386.99 552.752 1387 545C1387.01 539.631 1386.87 535.001 1393 534L1393 548C1396.28 540.185 1393 529.311 1393 521C1397.75 521.603 1402.3 523.137 1407 523.791C1413.48 524.692 1420.46 524 1427 524C1427 529.654 1426.79 535.351 1427.04 541C1427.25 545.762 1428.5 549.247 1425 553C1428.13 554.081 1431.65 552.944 1435 553L1435 531C1434.02 533.332 1434.02 535.456 1434 538C1430.66 534.055 1430.02 531.078 1430 526L1434 527C1432.11 521.457 1425.19 520.124 1420 518.884C1407.67 515.942 1395.3 513.031 1383 510z"/>
<path style="fill:#3e394a; stroke:none;" d="M1448 517L1448 544C1448.01 548.067 1447.54 552.365 1451 555L1450 517L1448 517z"/>
<path style="fill:#c0c2b0; stroke:none;" d="M1475 522C1475 542.4 1477 562.634 1477 583C1472.3 582.127 1467.77 582 1463 582L1463 595L1429 595L1429 598L1463 598L1464 624L1470 622L1469 586L1491 586C1488.6 582.594 1483.87 583.183 1482.16 578.941C1480.24 574.156 1482.06 567.122 1482 562C1481.87 551.162 1481.36 539.756 1480 529C1489.34 529.27 1496.5 534.674 1505.09 536.698C1509.42 537.718 1514.56 537 1519 537C1519 550.12 1521.86 563.962 1520 577L1524 577C1524 567.487 1523.73 557.47 1522.83 548C1522.54 544.963 1522.69 540.009 1520.97 537.418C1518.61 533.861 1511.84 532.559 1508 531.424C1497.13 528.215 1486.39 522.93 1475 522M1324 524C1322.29 533.21 1319.93 551.777 1329.13 557.852C1335.95 562.358 1349.08 561 1357 561L1357 594L1335 595C1335 622.159 1339 648.957 1339 676C1342.7 675.722 1345.45 673.81 1349.01 673.054C1361.55 670.395 1374.45 668.994 1386.91 666.037C1390.08 665.285 1392.79 663.623 1396 663L1396 641C1396.01 637.82 1395.61 633.886 1398.32 631.603C1401.4 629.008 1408.11 629.491 1412 629C1409.69 625.451 1406.86 626.47 1403 626.83C1397.06 627.386 1390.97 627.984 1385 628L1386 663C1370.86 663.125 1356.18 669.348 1341 670C1341 645.604 1339 621.426 1339 597C1344.28 597.754 1349.66 597 1355 597L1388 597L1388 594L1361 594L1361 557L1343 556C1343 550.243 1343.05 544.679 1342 539C1339.91 543.974 1341 550.638 1341 556L1328 554C1328 543.909 1326.21 534.043 1326 524L1324 524z"/>
<path style="fill:#3e394a; stroke:none;" d="M1463 524L1463 534C1464.35 530.793 1464.35 527.207 1463 524z"/>
<path style="fill:#c0c2b0; stroke:none;" d="M959 529L962 542L964 542C963.999 537.292 963.858 533.385 962 529L959 529M1412 534C1413.25 534.685 1413.55 534.749 1415 535C1413.75 534.315 1413.45 534.251 1412 534z"/>
<path style="fill:#3e394a; stroke:none;" d="M1431 539L1431 552L1434 552L1434 539L1431 539M1464 541L1464 557C1465.81 552.681 1465.81 545.319 1464 541z"/>
<path style="fill:#c0c2b0; stroke:none;" d="M1561 550C1561 557.369 1562 564.614 1562 572C1562 574.651 1561.23 579.033 1563.03 581.258C1566.06 585.007 1577.92 584.204 1582 583C1579.39 581.902 1576.84 582.007 1574 582L1573 556L1580 556L1580 570L1582 570L1582 559L1588 559C1583.71 554.846 1576.74 553.327 1571 552L1572 581L1564 581C1564 573.907 1563.58 567.05 1563.09 560C1562.83 556.226 1563.35 553.102 1561 550z"/>
<path style="fill:#3e394a; stroke:none;" d="M1491 558L1491 565C1492.06 562.466 1492.06 560.534 1491 558z"/>
<path style="fill:#c0c2b0; stroke:none;" d="M1588 560L1589 583C1591.19 577.774 1590.18 565.201 1588 560M1595 560L1595 576C1596.66 572.042 1596 567.263 1596 563C1599.45 563.768 1602.41 564.894 1606 565L1607 587C1609.69 587.418 1610.55 587.717 1612 590C1613.88 585.529 1613 579.817 1613 575C1611.56 578.432 1612 582.3 1612 586C1605.13 579.939 1611.16 570.954 1605.99 564.419C1603.52 561.296 1598.69 560.545 1595 560M1584 563L1584 566C1584.7 564.446 1584.7 564.554 1584 563M1393.33 565.667C1393.28 565.722 1393.22 566.778 1393.67 566.333C1393.72 566.278 1393.78 565.222 1393.33 565.667M1611 565L1611 571C1611.68 569.494 1611.83 568.685 1612 567C1614.75 568.329 1616.95 568.846 1620 569C1617.33 566.645 1614.45 565.801 1611 565M1598 567L1598 580C1599.44 576.568 1599 572.7 1599 569L1603 569C1601.25 567.745 1600.14 567.386 1598 567M931 570L934 586C940.325 581.9 937.003 572.454 931 570M1604 570L1605 591L1602 591L1602 600C1603.1 597.387 1602.99 594.836 1603 592L1609 592C1607.75 591.315 1607.45 591.251 1606 591C1606 584.173 1607.03 576.301 1604 570M1620 570L1620 577C1621.06 574.466 1621.06 572.534 1620 570M1624 570C1624 575.437 1623.68 580.612 1623 586C1625.89 582.693 1624.3 579.057 1625.11 575.028C1625.52 573.028 1627.15 571.738 1628 570L1624 570M960 572C961.506 572.683 962.315 572.826 964 573L965 581C966.327 577.837 966 574.414 966 571C963.795 571.094 962.106 571.356 960 572M1614 571L1614 583C1615.33 579.837 1615 576.414 1615 573L1618 573L1618 577C1619.14 573.525 1617.05 572.294 1614 571M1633 571C1633.1 575.82 1632.38 586.834 1636 590C1634.74 584.718 1635 579.4 1635 574L1645 576C1641.66 573.053 1637.3 571.995 1633 571M941 572L941 584C943.229 580.279 942.997 576.241 943 572L941 572M1484 574C1485.25 574.685 1485.55 574.749 1487 575C1485.75 574.315 1485.45 574.251 1484 574M1601 574C1602.09 579.871 1599.95 582.617 1599.14 588.089C1598.62 591.674 1599.29 595.363 1598.87 598.961C1598.22 604.491 1597 609.284 1597 615L1591 616C1591.52 611.805 1591.52 608.195 1591 604C1589.34 607.959 1590 612.737 1590 617C1597.67 616.75 1596.98 613.328 1598.3 607C1599.83 599.654 1600 593.627 1600 586L1603 586C1603 581.761 1603.64 577.482 1601 574M1637 576L1638 587C1639.46 583.526 1638.56 580.229 1642 578C1640.25 576.745 1639.14 576.386 1637 576M1644 578C1644 584.747 1644.66 591.296 1644.96 598C1645.11 601.346 1644.35 604.685 1647 607L1649 593L1647 593L1647 603C1645.74 598.754 1644.9 593.658 1649 591C1647.49 590.317 1646.69 590.174 1645 590C1645 586.017 1645.55 581.697 1644 578M1610.33 579.667C1610.28 579.722 1610.22 580.778 1610.67 580.333C1610.72 580.277 1610.78 579.223 1610.33 579.667M1525 580L1526 584C1526.55 581.992 1526.3 581.668 1525 580M1647 580L1647 588C1648.16 585.23 1648.16 582.77 1647 580M1596 582L1596 596C1593.79 596.094 1592.11 596.356 1590 597C1591.25 597.685 1591.55 597.749 1593 598L1593 608L1595 608L1594 597L1597 597C1597 592.183 1597.88 586.471 1596 582M1669 583C1670.81 583.574 1671.07 583.465 1673 583C1671.34 582.594 1670.76 582.691 1669 583M1654 586C1654 583.915 1653.86 584.276 1656 584C1653.61 582.655 1650.88 584.247 1654 586M1617 584C1618.1 587.321 1619.59 587.737 1623 588C1620.77 586.783 1618.85 585.787 1617 584z"/>
<path style="fill:#3e394a; stroke:none;" d="M66 587C69.3426 588.392 71.8623 587.632 75 586C71.8298 584.865 69.0992 585.84 66 587z"/>
<path style="fill:#c0c2b0; stroke:none;" d="M1672 586L1671 590C1672.15 588.36 1672.39 587.924 1672 586M1615 587C1615.19 593.431 1617 599.407 1617 606C1618.88 601.511 1616.45 595.949 1621 593C1619.23 592.221 1617.96 592.088 1616 592C1615.91 590.036 1615.78 588.769 1615 587M1654 588L1654 594C1654.95 591.715 1654.95 590.285 1654 588z"/>
<path style="fill:#3e394a; stroke:none;" d="M510 589C512.613 590.098 515.164 589.993 518 590C515.387 588.902 512.836 589.007 510 589z"/>
<path style="fill:#c0c2b0; stroke:none;" d="M1630 589C1629.49 590.952 1629.27 591.457 1628 593C1629.51 595.706 1629.91 597.913 1630 601L1632 601L1632 589L1630 589z"/>
<path style="fill:#3e394a; stroke:none;" d="M1560 590C1560 598.948 1559.48 608.073 1560.09 617C1560.49 622.849 1562.07 627.816 1556 631C1561.36 632.581 1563.9 628.981 1564 623.996C1564.17 614.978 1563 606.042 1563 597C1566.49 603.535 1566 612.688 1566 620C1568.69 619.499 1571.27 619.117 1574 619C1571.25 620.329 1569.05 620.846 1566 621L1566 629C1569.09 628.264 1575.88 627.015 1577.82 624.411C1579.72 621.851 1578.28 617.866 1578.09 615C1577.53 606.785 1577.07 598.217 1577 590L1570 590C1570 597.219 1571.02 604.882 1570 612C1567.89 604.928 1568 597.331 1568 590L1560 590z"/>
<path style="fill:#c0c2b0; stroke:none;" d="M1661.33 590.667C1661.28 590.722 1661.22 591.778 1661.67 591.333C1661.72 591.277 1661.78 590.222 1661.33 590.667M1518 591L1519 595C1519.55 592.992 1519.3 592.668 1518 591M1526 591L1527 592L1526 591z"/>
<path style="fill:#3e394a; stroke:none;" d="M1579 591L1580 625L1583 625L1582 597C1585.77 604.836 1584 615.45 1584 624C1587.62 621.586 1586.11 617.938 1586.01 614C1585.83 606.321 1585.06 598.651 1585 591L1579 591z"/>
<path style="fill:#c0c2b0; stroke:none;" d="M1634 593L1634 605L1636 605L1636 593L1634 593M1650 594L1650 602C1651.16 599.23 1651.16 596.77 1650 594M1656 594L1656 601C1657.06 598.466 1657.06 596.534 1656 594z"/>
<path style="fill:#3e394a; stroke:none;" d="M1412 595C1413.25 595.685 1413.55 595.749 1415 596C1413.75 595.315 1413.45 595.251 1412 595z"/>
<path style="fill:#c0c2b0; stroke:none;" d="M1664 595C1664.09 597.205 1664.36 598.894 1665 601C1665.87 598.948 1665.95 597.253 1666 595L1664 595M1679 596L1679 599C1679.7 597.446 1679.7 597.554 1679 596z"/>
<path style="fill:#3e394a; stroke:none;" d="M187 597C189.455 600.451 192.942 600.882 197 601C195.15 596.398 191.443 597.003 187 597z"/>
<path style="fill:#c0c2b0; stroke:none;" d="M1609 597C1609.55 598.635 1609.36 598.455 1611 599L1611 597L1609 597M1638 597L1638 608C1640.47 604.734 1640 600.99 1640 597L1638 597M1574 598C1573.98 605.18 1573.43 611.818 1574 619C1577.12 614.424 1576.11 603.035 1574 598M1615 598L1615 606C1616.16 603.23 1616.16 600.77 1615 598M1658 600L1658 603C1658.7 601.446 1658.7 601.554 1658 600M1608 602L1608 608C1608.95 605.715 1608.95 604.285 1608 602M1622 602L1622 612L1626 612C1624.75 611.315 1624.45 611.251 1623 611C1623 607.874 1623.21 604.89 1622 602M1613 603L1613 613L1609 613C1614.96 614.952 1614.54 606.669 1613 603M1611 604L1611 608C1611.71 606.241 1611.71 605.759 1611 604M222 606L222 634L226 634L226 606L222 606M1343 614L1343 629C1344.74 624.852 1344.74 618.148 1343 614M1291 664C1297.32 663.948 1307.16 663.934 1311.44 658.517C1316.61 651.966 1314.47 636.804 1313.42 629C1312.85 624.686 1313.19 621.198 1309 619C1310.66 632.11 1311 644.785 1311 658L1296 659C1295.91 647.973 1294.01 637.116 1294 626C1294 624.133 1294.85 616.191 1291.17 616.921C1287.42 617.666 1289.43 625.651 1289.72 628C1291.19 640 1291 651.924 1291 664M1302 622C1299.53 627.126 1300 632.418 1300 638L1304 638L1304 622L1302 622z"/>
<path style="fill:#3e394a; stroke:none;" d="M1549 633C1551.16 633.676 1552.73 633.387 1555 633C1552.76 632.189 1551.35 632.471 1549 633M1514 641L1513 644C1514.77 643.021 1514.96 642.778 1514 641z"/>
<path style="fill:#c0c2b0; stroke:none;" d="M297 642L297 653L304 653C303.999 646.612 304.473 642.245 297 642M1257 642C1257 650.747 1257.58 659.303 1257.96 668C1258.27 675.127 1257.9 682.088 1260 689C1263.6 684.246 1261.95 676.61 1261.29 671C1260.17 661.52 1261 651.541 1261 642L1257 642z"/>
<path style="fill:#3e394a; stroke:none;" d="M1510.67 644.333C1510.22 644.778 1511.28 644.722 1511.33 644.667C1511.78 644.222 1510.72 644.278 1510.67 644.333z"/>
<path style="fill:#c0c2b0; stroke:none;" d="M401 719C401 750.574 399.934 782.526 402.09 814C402.777 824.034 403 833.916 403 844C403 847.398 403.949 852.702 401.972 855.683C398.281 861.25 386.535 858.138 381 859.633C374.82 861.304 369.199 861.219 363 862.375C344.021 865.915 324.89 869.89 306 873.665C249.274 885.002 192.047 894.544 135 904.536C127.428 905.863 119.627 905.97 112 907.258C89.7336 911.02 67.2787 914.159 45 918.31C30.4472 921.022 14.8193 925.653 0 926L0 943C5.71239 942.032 11.2024 939.794 17 939.174C22.6208 938.572 28.4161 939.657 34 938.741C41.3968 937.527 48.7537 934.518 56.1698 933.58C59.0694 933.213 62.0423 934.189 65 934C65.7084 937.952 70.8193 941.51 72 936C73.1863 937.036 73.6037 937.339 75 938L76 931C106.993 928.554 136.651 919.327 167 913.375C227.468 901.516 288.655 893.884 349 881.196C364.723 877.89 380.204 874.057 396 871.17C402.22 870.033 408.926 870.508 415 868.721C419.01 867.542 421.522 864.111 425 862.005C430.351 858.766 436.893 858.017 443 858L443 766C443 755.326 439.031 739.531 448.264 731.51C453.82 726.684 462.285 728.255 469 727.961C482.132 727.386 494.797 724 508 724C507.535 708.363 492.701 712.948 482 712.999C454.787 713.13 428.138 719 401 719z"/>
<path style="fill:#3e394a; stroke:none;" d="M65 718L65 748L80 748C80 735.774 81.3006 718.847 65 718z"/>
<path style="fill:#c0c2b0; stroke:none;" d="M1128 722L1128 730L1132 730L1132 722L1128 722z"/>
<path style="fill:#3e394a; stroke:none;" d="M44 832C47.1633 833.327 50.5856 833 54 833C50.8367 831.673 47.4144 832 44 832z"/>
<path style="fill:#c0c2b0; stroke:none;" d="M136 856C136.415 860.754 137.898 865.192 138 870L142 870C142 863.777 142.772 858.379 136 856M188 860L188 864L194 864L194 860L188 860z"/>
</svg>
